<svg id="insta" xmlns="http://www.w3.org/2000/svg" width="97.681" height="97.68" viewBox="0 0 97.681 97.68">
  <defs>
    <style>
      .cls-1 {
        fill: #745b4b;
      }
    </style>
  </defs>
  <ellipse id="Ellipse_5" data-name="Ellipse 5" class="cls-1" cx="8.736" cy="8.736" rx="8.736" ry="8.736" transform="translate(39.707 40.501)"/>
  <path id="Path_9" data-name="Path 9" class="cls-1" d="M49.661,19.2H27.822a10.85,10.85,0,0,0-7.743,2.78,10.85,10.85,0,0,0-2.78,7.743V51.561A10.943,10.943,0,0,0,20.278,59.5a11.192,11.192,0,0,0,7.743,2.78h21.64A10.85,10.85,0,0,0,57.4,59.5a10.17,10.17,0,0,0,2.978-7.743V29.921a11.192,11.192,0,0,0-2.78-7.743A10.63,10.63,0,0,0,49.661,19.2ZM38.742,54.142a13.5,13.5,0,0,1,0-27,13.5,13.5,0,1,1,0,27Zm14.1-24.42a3.177,3.177,0,1,1,3.177-3.177A3.136,3.136,0,0,1,52.838,29.722Z" transform="translate(9.701 8.595)"/>
  <path id="Path_10" data-name="Path 10" class="cls-1" d="M52.54,5.2a48.84,48.84,0,1,0,48.84,48.84A48.8,48.8,0,0,0,52.54,5.2ZM78.548,65.555A15.738,15.738,0,0,1,74.18,76.872a15.45,15.45,0,0,1-11.118,4.169H41.422A15.45,15.45,0,0,1,30.3,76.872c-2.978-2.78-4.368-6.75-4.368-11.317V43.716c0-9.133,6.155-15.486,15.486-15.486H63.261A15.263,15.263,0,0,1,74.379,32.6c2.78,2.78,4.169,6.552,4.169,11.118V65.555Z" transform="translate(-3.7 -5.2)"/>
</svg>
