<svg xmlns="http://www.w3.org/2000/svg" width="97.414" height="97.417" viewBox="0 0 97.414 97.417">
  <defs>
    <style>
      .cls-1 {
        fill: #745b4b;
      }
    </style>
  </defs>
  <g id="iconfinder_51-linkedin_104452" transform="translate(-3.722 -5.155)">
    <path id="Path_17" data-name="Path 17" class="cls-1" d="M52.431,5.155a48.709,48.709,0,1,0,48.7,48.709A48.709,48.709,0,0,0,52.431,5.155ZM79.559,77.523a3.969,3.969,0,0,1-4.017,3.92H29.221a3.968,3.968,0,0,1-4.017-3.92V30.666a3.969,3.969,0,0,1,4.017-3.92H75.54a3.973,3.973,0,0,1,4.017,3.92V77.523Z" transform="translate(0 0)"/>
    <path id="Path_18" data-name="Path 18" class="cls-1" d="M40.816,26.441a8.148,8.148,0,0,0-7.4,4.077V30.6h-.053a.442.442,0,0,0,.053-.081v-3.5H25.209c.109,2.314,0,24.694,0,24.694h8.209V37.921a5.6,5.6,0,0,1,.271-2A4.505,4.505,0,0,1,37.9,32.913c2.975,0,4.162,2.267,4.162,5.586V51.712h8.209V37.556C50.269,29.968,46.216,26.441,40.816,26.441Z" transform="translate(21.015 20.818)"/>
    <path id="Path_19" data-name="Path 19" class="cls-1" d="M23.161,20.712c-2.807,0-4.646,1.847-4.646,4.271a4.252,4.252,0,0,0,4.538,4.269h.053c2.862,0,4.644-1.9,4.644-4.269A4.268,4.268,0,0,0,23.161,20.712Z" transform="translate(14.468 15.215)"/>
    <rect id="Rectangle_8" data-name="Rectangle 8" class="cls-1" width="8.211" height="24.694" transform="translate(33.471 47.839)"/>
  </g>
</svg>
