<svg xmlns="http://www.w3.org/2000/svg" width="97.42" height="97.417" viewBox="0 0 97.42 97.417">
  <defs>
    <style>
      .cls-1 {
        fill: #745b4b;
      }
    </style>
  </defs>
  <path id="spotify" class="cls-1" d="M52.438,3.813a48.709,48.709,0,1,0,48.71,48.708A48.709,48.709,0,0,0,52.438,3.813ZM72.2,75.506a3.691,3.691,0,0,1-2.062-.722,48.835,48.835,0,0,0-25.2-6.515,76.159,76.159,0,0,0-15.364,1.689,15.214,15.214,0,0,1-2.4.482,3.041,3.041,0,0,1-3.083-3.061,3.109,3.109,0,0,1,2.65-3.347,81.33,81.33,0,0,1,18.231-2.154c10.658,0,20.158,2.445,28.333,7.344a3.244,3.244,0,0,1,1.93,3.237A3.035,3.035,0,0,1,72.2,75.506Zm5.308-12.892a4.478,4.478,0,0,1-2.44-.844c-7.924-4.7-18.905-7.826-30.931-7.826a61.582,61.582,0,0,0-15.9,2.037,8.226,8.226,0,0,1-2.37.542,3.814,3.814,0,0,1-3.8-3.819,3.875,3.875,0,0,1,3.03-4.068A67.305,67.305,0,0,1,44.3,45.972c12.75,0,25.084,3.176,34.781,8.978A3.982,3.982,0,0,1,81.3,58.8,3.789,3.789,0,0,1,77.507,62.614ZM83.55,47.62a4.618,4.618,0,0,1-2.51-.75c-8.816-5.286-22.5-8.2-35.731-8.2A75.185,75.185,0,0,0,25.85,41.011a10.207,10.207,0,0,1-2.5.533,4.566,4.566,0,0,1-4.592-4.654,4.617,4.617,0,0,1,3.41-4.656,81.93,81.93,0,0,1,23.119-3c14.3,0,29.351,2.942,40.344,9.4a4.626,4.626,0,0,1,2.51,4.424A4.542,4.542,0,0,1,83.55,47.62Z" transform="translate(-3.728 -3.813)"/>
</svg>
