<svg id="whatsapp" xmlns="http://www.w3.org/2000/svg" width="97.65" height="97.649" viewBox="0 0 97.65 97.649">
  <defs>
    <style>
      .cls-1 {
        fill: #745b4b;
      }
    </style>
  </defs>
  <path id="Path_7" data-name="Path 7" class="cls-1" d="M41.831,16.173A24.372,24.372,0,0,0,21.186,53.495l.579.922L19.3,63.4l9.22-2.418.889.528a24.325,24.325,0,0,0,12.4,3.4h.01a24.368,24.368,0,0,0,.01-48.736ZM56.159,51c-.61,1.71-3.536,3.272-4.943,3.482A10.034,10.034,0,0,1,46.6,54.2a42.105,42.105,0,0,1-4.175-1.543C35.083,49.481,30.285,42.085,29.919,41.6s-2.99-3.971-2.99-7.575a8.214,8.214,0,0,1,2.563-6.109,2.69,2.69,0,0,1,1.953-.916c.488,0,.977,0,1.4.026.449.023,1.053-.171,1.648,1.257.61,1.466,2.075,5.071,2.258,5.438A1.348,1.348,0,0,1,36.815,35a5,5,0,0,1-.732,1.222c-.366.428-.769.955-1.1,1.283-.367.365-.748.762-.321,1.494a22.069,22.069,0,0,0,4.074,5.073A20,20,0,0,0,44.626,47.7c.732.367,1.16.305,1.587-.183s1.831-2.138,2.319-2.871.976-.611,1.648-.366,4.272,2.016,5,2.382,1.22.55,1.4.856A6.123,6.123,0,0,1,56.159,51Z" transform="translate(8.076 7.223)"/>
  <path id="Path_8" data-name="Path 8" class="cls-1" d="M53.408,4.374A48.824,48.824,0,1,0,102.232,53.2,48.824,48.824,0,0,0,53.408,4.374Zm1.072,77.083h-.012a29.284,29.284,0,0,1-14.005-3.567L24.925,81.965l4.158-15.187a29.308,29.308,0,1,1,25.4,14.679Z" transform="translate(-4.582 -4.374)"/>
</svg>
